<?xml version="1.0" encoding="UTF-8" standalone="no"?>
<svg width="41px" height="54px" viewBox="0 0 41 54" version="1.1" xmlns="http://www.w3.org/2000/svg" xmlns:xlink="http://www.w3.org/1999/xlink">
    <!-- Generator: Sketch 3.6.1 (26313) - http://www.bohemiancoding.com/sketch -->
    <title>ic_chef</title>
    <desc>Created with Sketch.</desc>
    <defs>
        <path id="path-1" d="M40.3138661,37.7382508 L40.3138661,0.000519818064 L2.07927224e-05,0.000519818064 L2.07927224e-05,37.7382508 L40.3138661,37.7382508 L40.3138661,37.7382508 Z"></path>
    </defs>
    <g id="Page-1" stroke="none" stroke-width="1" fill="none" fill-rule="evenodd" opacity="0.5">
        <g id="Desktop-HD" transform="translate(-63.000000, -105.000000)">
            <g id="Sidebar" transform="translate(25.000000, 80.000000)">
                <g id="sect_user" transform="translate(18.000000, 12.000000)">
                    <g id="ic_dp">
                        <g id="ic_chef" transform="translate(20.000000, 13.333333)">
                            <g id="Group-3" transform="translate(0.000000, 0.103444)">
                                <mask id="mask-2" fill="white">
                                    <use xlink:href="#path-1"></use>
                                </mask>
                                <g id="Clip-2"></g>
                                <path d="M32.4741988,0.000499025341 C30.030846,0.000499025341 27.7945887,1.11717219 26.3153944,3.03363743 C24.836512,1.11717219 22.6005666,0.000499025341 20.1569019,0.000499025341 C17.7140689,0.000499025341 15.4779155,1.11717219 13.9982014,3.03363743 C12.5187992,1.11717219 10.2825419,0.000499025341 7.8397089,0.000499025341 C3.51690188,0.000499025341 2.07927224e-05,3.51738012 2.07927224e-05,7.83997921 C2.07927224e-05,11.9365614 3.15812346,15.3078934 7.16768811,15.6488941 L7.16768811,37.06623 C7.16768811,37.437796 7.46897466,37.7382508 7.8397089,37.7382508 L32.4741988,37.7382508 C32.8442053,37.7382508 33.1462196,37.437796 33.1462196,37.06623 L33.1462196,15.6476465 C37.1563041,15.306334 40.3138869,11.9350019 40.3138869,7.83873164 C40.3138869,3.51738012 36.7967979,0.000499025341 32.4741988,0.000499025341" id="Fill-1" fill="#FFFFFF" mask="url(#mask-2)"></path>
                            </g>
                            <path d="M36.3375491,49.8807018 C33.6396933,49.8807018 31.2382378,45.9213515 30.3695179,44.3047173 C30.1870617,43.8112021 29.98059,43.3936842 29.7367953,43.031475 C28.6498558,41.4319948 26.8469188,40.4767771 24.9170422,40.4767771 C22.9915322,40.4767771 21.2321559,41.4148408 20.1584198,42.9476803 C19.0849955,41.4148408 17.3258272,40.4767771 15.4001092,40.4767771 C13.4677375,40.4767771 11.6657362,41.4317869 10.5787966,43.0339701 C10.3313632,43.3986745 10.1258272,43.8161923 9.98610006,44.2204029 C9.07891358,45.9233268 6.6760026,49.8817414 3.97783496,49.8817414 C3.67010266,49.8817414 3.40312411,50.0907083 3.32764652,50.3881481 C3.25081741,50.6874594 3.38659389,50.997167 3.65710721,51.145627 C3.82033008,51.2333723 7.72447563,53.3328135 12.1108044,53.3328135 C15.0859311,53.3328135 17.5582898,52.3697986 19.4584327,50.4696556 C19.474963,50.4536452 19.4879584,50.4379467 19.5019935,50.4224561 C19.7431891,50.1809487 19.9639038,49.92 20.1587316,49.6389864 C20.3547031,49.919896 20.5739623,50.1809487 20.8161975,50.4212086 C20.829193,50.4379467 20.8443717,50.4536452 20.8599662,50.4696556 C22.7608369,52.3701105 25.2304925,53.3328135 28.2081144,53.3328135 L28.2093619,53.3328135 C32.5939233,53.3328135 36.4965094,51.2333723 36.6620195,51.145627 C36.9307654,50.9982066 37.0674776,50.6846524 36.9910643,50.3881481 C36.9122599,50.0891488 36.6447615,49.8807018 36.3375491,49.8807018" id="Fill-4" fill="#FFFFFF"></path>
                        </g>
                    </g>
                </g>
            </g>
        </g>
    </g>
</svg>