<?xml version="1.0" encoding="UTF-8" standalone="no"?>
<svg width="23px" height="24px" viewBox="0 0 23 24" version="1.1" xmlns="http://www.w3.org/2000/svg" xmlns:xlink="http://www.w3.org/1999/xlink">
    <!-- Generator: Sketch 3.6.1 (26313) - http://www.bohemiancoding.com/sketch -->
    <title>ic_gift</title>
    <desc>Created with Sketch.</desc>
    <defs>
        <path id="path-1" d="M0.00236056313,10.620915 L9.25185703,10.620915 L9.25185703,0.014035446 L0.00236056313,0.014035446 L0.00236056313,10.620915 L0.00236056313,10.620915 Z"></path>
    </defs>
    <g id="Page-1" stroke="none" stroke-width="1" fill="none" fill-rule="evenodd">
        <g id="Desktop-HD" transform="translate(-64.000000, -189.000000)">
            <g id="Sidebar" transform="translate(25.000000, 80.000000)">
                <g id="stat-boxes" transform="translate(0.000000, 100.000000)">
                    <g id="stat-box-promos">
                        <g id="Group-2-Copy" transform="translate(39.000000, 9.000000)">
                            <g id="ic_gift">
                                <g id="Group-3" transform="translate(1.257105, 13.229654)">
                                    <mask id="mask-2" fill="white">
                                        <use xlink:href="#path-1"></use>
                                    </mask>
                                    <g id="Clip-2"></g>
                                    <path d="M8.85931447,0.014035446 L1.11769172,0.014035446 C0.504271224,0.014035446 0.00236056313,0.516106596 0.00236056313,1.1298371 L0.00236056313,9.50512735 C0.00236056313,10.1188113 0.504271224,10.620929 1.11769172,10.620929 L8.98949464,10.620929 C9.25185703,10.620929 9.25185703,10.3389158 9.25185703,10.3389158 L9.25185703,0.393220746 C9.25176391,0.393220746 9.25176391,0.014035446 8.85931447,0.014035446" id="Fill-1" fill="#FFFFFF" mask="url(#mask-2)"></path>
                                </g>
                                <path d="M20.5268238,13.2436894 L12.7930695,13.2436894 C12.3220278,13.2436894 12.3925653,13.7344875 12.3925653,13.7344875 L12.3925653,23.5776534 C12.3925653,23.5776534 12.3887474,23.8503035 12.6721081,23.8503035 L20.5266375,23.8503035 C21.140058,23.8503035 21.6419687,23.3482324 21.6419687,22.7345018 L21.6419687,14.3594911 C21.6421549,13.7457606 21.1402442,13.2436894 20.5268238,13.2436894" id="Fill-4" fill="#FFFFFF"></path>
                                <path d="M10.5088872,6.65387749 C10.5088872,6.65387749 10.5088872,6.2757636 10.135434,6.2757636 L1.11533581,6.2757636 C0.501915317,6.2757636 4.65594303e-06,6.77792792 4.65594303e-06,7.39156526 L4.65594303e-06,10.8747596 C4.65594303e-06,11.4884901 0.501915317,11.9905612 1.11533581,11.9905612 L10.165977,11.9905612 C10.5088872,11.9905612 10.5088872,11.6930358 10.5088872,11.6930358 L10.5088872,6.65387749 Z" id="Fill-6" fill="#FFFFFF"></path>
                                <path d="M21.7862191,6.2757636 L12.7373472,6.2757636 C12.3927143,6.2757636 12.3927143,6.60426664 12.3927143,6.60426664 L12.3927143,11.6999301 C12.3927143,11.6999301 12.3927143,11.9905612 12.8117026,11.9905612 L21.7862191,11.9905612 C22.3996396,11.9905612 22.9015503,11.4884901 22.9015503,10.8747596 L22.9015503,7.39156526 C22.9015503,6.77792792 22.3996396,6.2757636 21.7862191,6.2757636" id="Fill-8" fill="#FFFFFF"></path>
                                <path d="M5.38404874,1.78847358 C4.84191073,1.78847358 4.65557989,1.94000795 4.55328882,2.46411285 C4.46957496,2.89267608 4.57512519,3.04234714 4.60976541,3.09149216 C4.75470492,3.29720251 5.1323019,3.46872098 5.67308968,3.57432455 C5.96487763,3.63138867 6.32538731,3.66157443 6.7153691,3.66157443 C7.57285413,3.66157443 8.32828089,3.53156139 8.82953972,3.38939019 C8.86604231,3.37904878 8.92270514,3.33586637 8.86199164,3.29971799 C8.20666766,2.76559777 7.00771576,2.05236606 6.00831758,1.85699712 C5.77552043,1.81162532 5.56539772,1.78847358 5.38404874,1.78847358 M6.71541566,5.45017379 C6.2051243,5.45017379 5.7390644,5.4096932 5.33031916,5.32980342 C4.29218353,5.12688804 3.57870682,4.73191112 3.14900984,4.12251283 C2.76400991,3.5763742 2.64621455,2.90306408 2.79869668,2.12121567 C3.06590125,0.753307032 3.98409978,1.39748882e-05 5.38395562,1.39748882e-05 C5.68021328,1.39748882e-05 6.00557058,0.034252451 6.35108811,0.101797744 C7.22994392,0.273595703 8.35402825,0.777763086 9.35812893,1.4505142 C11.0616919,2.59202966 11.1459179,3.30167448 11.0610867,3.73620034 C10.9364005,4.37471298 10.3398811,4.83094649 9.23744689,5.13108051 C8.49268224,5.33385614 7.57341284,5.45017379 6.71541566,5.45017379" id="Fill-10" fill="#FFFFFF"></path>
                                <path d="M14.0796184,3.28865454 C14.0215122,3.3223806 14.0496341,3.37562493 14.0798046,3.38433594 C14.5808306,3.52846362 15.344219,3.66164431 16.2118075,3.66164431 C16.6018824,3.66164431 16.9622524,3.63150513 17.2541334,3.57439442 C17.7948281,3.46874427 18.1725648,3.29727239 18.3174577,3.09160862 C18.3522376,3.04241701 18.457881,2.89274596 18.3739343,2.4642293 C18.2717364,1.94007783 18.0853124,1.78854346 17.5430813,1.78854346 C17.3618254,1.78854346 17.1518424,1.81164861 16.918859,1.85716016 C15.9194142,2.05243593 14.7349423,2.75444115 14.0796184,3.28865454 M16.2119471,5.45019708 L16.2118075,5.45019708 C15.3538103,5.45019708 14.434634,5.33383285 13.6898228,5.1311038 C12.587342,4.83101637 11.9909157,4.37468969 11.866183,3.73627021 C11.7814449,3.30174435 11.8655312,2.59209953 13.5692339,1.45058408 C14.5731483,0.777879544 15.6972792,0.273665577 16.5763213,0.101867618 C16.9217922,0.0343223254 17.2471495,8.38493292e-05 17.5431744,8.38493292e-05 C18.9434027,8.38493292e-05 19.8615081,0.753470072 20.1284333,2.12137871 C20.2811017,2.90313396 20.1633529,3.57644407 19.7783064,4.1225827 C19.3486094,4.73207416 18.6351793,5.12695792 17.5968109,5.32987329 C17.1882518,5.40962332 16.7221454,5.45019708 16.2119471,5.45019708" id="Fill-12" fill="#FFFFFF"></path>
                            </g>
                        </g>
                    </g>
                </g>
            </g>
        </g>
    </g>
</svg>