<?xml version="1.0" encoding="UTF-8" standalone="no"?>
<svg width="33px" height="43px" viewBox="0 0 33 43" version="1.1" xmlns="http://www.w3.org/2000/svg" xmlns:xlink="http://www.w3.org/1999/xlink">
    <!-- Generator: Sketch 3.6.1 (26313) - http://www.bohemiancoding.com/sketch -->
    <title>ic_hot</title>
    <desc>Created with Sketch.</desc>
    <defs></defs>
    <g id="Page-1" stroke="none" stroke-width="1" fill="none" fill-rule="evenodd">
        <g id="Desktop-HD" transform="translate(-1315.000000, -463.000000)" fill="#4CAE4E">
            <g id="Dash" transform="translate(342.000000, 80.000000)">
                <g id="donut-graph" transform="translate(939.000000, 364.000000)">
                    <path d="M50.2192982,55.55 C46.542924,55.55 43.7315789,52.755 43.7315789,49.315 C43.7315789,46.09 45.894152,43.725 49.354269,43.08 C53.0307278,42.435084 56.7070175,40.715 58.6533333,37.92 C59.5183626,40.5 59.9508772,43.295 59.9508772,46.09 C59.9508772,51.25 55.625731,55.55 50.2192982,55.55 M53.4631579,19 C53.4631579,19 54.7607018,24.375 54.7607018,28.675 C54.7607018,32.76 51.9494412,36.2 47.8404678,36.2 C43.7314945,36.2 40.4877193,32.76 40.4877193,28.675 L40.4877193,28.03 C36.3788304,32.975 34,39.21 34,45.875 C34,54.69 41.3527485,62 50.2192982,62 C59.085848,62 66.4385965,54.69 66.4385965,45.875 C66.4385965,34.91 61.4646784,25.235 53.4631579,19" id="ic_hot"></path>
                </g>
            </g>
        </g>
    </g>
</svg>