<?xml version="1.0" encoding="UTF-8" standalone="no"?>
<svg width="116px" height="96px" viewBox="0 0 116 96" version="1.1" xmlns="http://www.w3.org/2000/svg" xmlns:xlink="http://www.w3.org/1999/xlink">
    <!-- Generator: Sketch 3.6.1 (26313) - http://www.bohemiancoding.com/sketch -->
    <title>ic_inbox</title>
    <desc>Created with Sketch.</desc>
    <defs></defs>
    <g id="Page-1" stroke="none" stroke-width="1" fill="none" fill-rule="evenodd">
        <g id="Desktop-HD" transform="translate(-459.000000, -857.000000)" fill="#B6B6B6">
            <g id="custom-questions" transform="translate(342.000000, 813.000000)">
                <g id="empty-state" transform="translate(91.000000, 44.000000)">
                    <path d="M102.724293,52.7997504 L95.6019636,67.2001839 L71.6007158,67.2001839 L64.47576,52.7997504 L40.7755555,52.7997504 C40.8262548,52.699928 40.8879871,52.5002832 40.9633793,52.2002906 C41.0387715,51.9008234 41.1012918,51.7003905 41.151203,51.6005681 L57.0508115,14.4017469 L110.150555,14.4017469 L126.048849,51.6005681 C126.099811,51.7516151 126.162069,51.95126 126.235622,52.2002906 C126.311277,52.4490586 126.373272,52.6487034 126.424497,52.7997504 L102.724293,52.7997504 Z M139.324179,45.8247909 L121.473305,4.42502237 C120.973405,3.17408996 120.061869,2.12464119 118.735807,1.27509995 C117.411584,0.424245244 116.099182,0 114.799389,0 L52.4001379,0 C51.1000824,0 49.7876804,0.424245244 48.4631946,1.27509995 C47.1387088,2.12464119 46.2250711,3.17408996 45.7254336,4.42502237 L27.8748225,45.8247909 C26.6246781,48.8748909 26,51.9494211 26,55.0491697 L26,91.2001182 C26,92.5001738 26.4746818,93.624752 27.4248336,94.5751664 C28.3755107,95.5242674 29.5006143,96 30.8006699,96 L136.399908,96 C137.699701,96 138.824279,95.5242674 139.774694,94.5751664 C140.724057,93.6250147 141.198739,92.5004364 141.198739,91.2001182 L141.198739,55.0491697 C141.198476,51.9494211 140.575374,48.8748909 139.324179,45.8247909 L139.324179,45.8247909 Z" id="ic_inbox"></path>
                </g>
            </g>
        </g>
    </g>
</svg>