<?xml version="1.0" encoding="UTF-8" standalone="no"?>
<svg width="38px" height="20px" viewBox="0 0 38 20" version="1.1" xmlns="http://www.w3.org/2000/svg" xmlns:xlink="http://www.w3.org/1999/xlink">
    <!-- Generator: Sketch 3.6.1 (26313) - http://www.bohemiancoding.com/sketch -->
    <title>ic_tie</title>
    <desc>Created with Sketch.</desc>
    <defs>
        <path id="path-1" d="M37.9309604,7.38007381e-06 L37.9309604,19.9690037 L0,19.9690037 L0,7.38007381e-06 L37.9309604,7.3800738e-06 L37.9309604,7.38007381e-06 Z"></path>
    </defs>
    <g id="Page-1" stroke="none" stroke-width="1" fill="none" fill-rule="evenodd">
        <g id="Desktop-HD" transform="translate(-253.000000, -194.000000)">
            <g id="Sidebar" transform="translate(25.000000, 80.000000)">
                <g id="stat-boxes" transform="translate(0.000000, 100.000000)">
                    <g id="stat-box-waiters" transform="translate(198.000000, 0.000000)">
                        <g id="Group-2-Copy-2" transform="translate(30.000000, 14.000000)">
                            <g id="ic_tie">
                                <mask id="mask-2" fill="white">
                                    <use xlink:href="#path-1"></use>
                                </mask>
                                <g id="Clip-2"></g>
                                <path d="M18.9655839,11.5327749 C18.1079129,11.5327749 17.4095966,10.83831 17.4095966,9.98450923 C17.4095966,9.13011808 18.1069498,8.43447232 18.9655839,8.43447232 C19.823255,8.43447232 20.5194228,9.12915867 20.5194228,9.98450923 C20.5206082,10.8384576 19.823255,11.5327749 18.9655839,11.5327749 M37.7147016,2.91498893 C37.4229586,2.0122583 36.6873781,0.81299631 34.8423889,0.216464945 C34.3966251,0.0724059041 33.9230058,0.000228782288 33.4317544,0.000228782288 C29.6065726,0.000228782288 25.0548485,4.66140959 22.7640955,7.32657565 C21.9219821,6.13587454 20.5368326,5.35255351 18.9669915,5.35255351 C17.3964837,5.35255351 16.0125195,6.13705535 15.1682577,7.32657565 C12.8794309,4.662369 8.326151,7.3800738e-06 4.5007469,7.3800738e-06 C4.00971781,7.3800738e-06 3.53476495,0.0734391144 3.0899643,0.216317343 C1.24519733,0.81299631 0.509616783,2.01343911 0.216466191,2.91498893 C-0.579270609,5.37720295 1.00183122,8.41557934 1.99544652,9.98473063 C1.00183122,11.5536605 -0.579270609,14.5904871 0.216466191,17.0547675 C0.509616783,17.9571292 1.24497508,19.1569815 3.0899643,19.7521107 C3.53476495,19.897572 4.00949555,19.9690111 4.5007469,19.9690111 C8.326151,19.9690111 12.8782456,15.3066494 15.1692208,12.6428118 C16.011186,13.8335129 17.3964837,14.6168339 18.9667693,14.6168339 C20.5366103,14.6168339 21.9205745,13.8332915 22.7639473,12.6428118 C25.0536631,15.3066494 29.6064244,19.9690111 33.4316063,19.9690111 C33.9227835,19.9690111 34.3964029,19.8952103 34.8421666,19.7521107 C36.6871558,19.1568339 37.4227364,17.9558007 37.7144794,17.0547675 C38.5102162,14.5927749 36.9291884,11.5536605 35.9354991,9.98473063 C36.9281513,8.41535793 38.5090308,5.37838376 37.7147016,2.91498893" id="Fill-1" fill="#FFFFFF" mask="url(#mask-2)"></path>
                            </g>
                        </g>
                    </g>
                </g>
            </g>
        </g>
    </g>
</svg>